<?xml version="1.0" encoding="utf-8"?><!DOCTYPE svg PUBLIC "-//W3C//DTD SVG 1.1//EN" "http://www.w3.org/Graphics/SVG/1.1/DTD/svg11.dtd"><svg version="1.1" xmlns="http://www.w3.org/2000/svg" xmlns:xlink="http://www.w3.org/1999/xlink" width="32" height="32" viewBox="0 0 32 32" data-tags="mobile,phone,cellular"><g fill="#444" transform="scale(0.03125 0.03125)"><path d="M704 0h-384c-70.688 0-128 57.312-128 128v768c0 70.688 57.312 128 128 128h384c70.688 0 128-57.312 128-128v-768c0-70.688-57.312-128-128-128zM528 96h96c8.8 0 16 7.168 16 16s-7.2 16-16 16h-96c-8.832 0-16-7.168-16-16s7.168-16 16-16zM416 64c17.664 0 32 14.336 32 32s-14.336 32-32 32-32-14.336-32-32 14.336-32 32-32zM576 928c0 17.696-14.304 32-32 32h-64c-17.664 0-32-14.304-32-32v-64c0-17.696 14.336-32 32-32h64c17.696 0 32 14.304 32 32v64zM768 736c0 17.696-14.304 32-32 32h-448c-17.664 0-32-14.304-32-32v-512c0-17.664 14.336-32 32-32h448c17.696 0 32 14.336 32 32v512z" /></g></svg>